<svg width="36" height="36" viewBox="0 0 36 36" fill="none" xmlns="http://www.w3.org/2000/svg">
<path d="M8.89974 26.0269H12.2349V17.9271L7.47036 14.3536V24.5975C7.47036 25.3884 8.1112 26.0269 8.89974 26.0269Z" fill="#3A4D39"/>
<path d="M23.6699 26.0269H27.0052C27.7961 26.0269 28.4345 25.386 28.4345 24.5975V14.3536L23.6699 17.9271" fill="#3A4D39"/>
<path d="M23.6699 11.7332V17.9272L28.4345 14.3538V12.4479C28.4345 10.6803 26.4167 9.67255 25.004 10.7327" fill="#3A4D39"/>
<path d="M12.2349 17.9271V11.7332L17.9524 16.0213L23.6699 11.7332V17.9271L17.9524 22.2152" fill="#3A4D39"/>
<path d="M7.47036 12.4479V14.3538L12.2349 17.9272V11.7332L10.9009 10.7327C9.48578 9.67255 7.47036 10.6803 7.47036 12.4479Z" fill="#3A4D39"/>
</svg>
