<svg width="36" height="36" viewBox="0 0 36 36" fill="none" xmlns="http://www.w3.org/2000/svg">
<path d="M15.0041 18.0461C15.0041 16.3879 16.3477 15.0432 18.0055 15.0432C19.6632 15.0432 21.0075 16.3879 21.0075 18.0461C21.0075 19.7044 19.6632 21.0491 18.0055 21.0491C16.3477 21.0491 15.0041 19.7044 15.0041 18.0461ZM13.3813 18.0461C13.3813 20.6008 15.4515 22.6716 18.0055 22.6716C20.5594 22.6716 22.6296 20.6008 22.6296 18.0461C22.6296 15.4915 20.5594 13.4206 18.0055 13.4206C15.4515 13.4206 13.3813 15.4915 13.3813 18.0461ZM21.732 13.2372C21.732 13.451 21.7952 13.6601 21.9139 13.8379C22.0326 14.0157 22.2013 14.1543 22.3987 14.2362C22.5962 14.3181 22.8134 14.3396 23.0231 14.298C23.2327 14.2563 23.4253 14.1535 23.5765 14.0023C23.7277 13.8512 23.8307 13.6587 23.8725 13.449C23.9143 13.2393 23.893 13.022 23.8112 12.8244C23.7295 12.6269 23.5911 12.458 23.4134 12.3391C23.2358 12.2203 23.0269 12.1568 22.8131 12.1567H22.8127C22.5262 12.1569 22.2515 12.2707 22.0489 12.4733C21.8462 12.6759 21.7323 12.9507 21.732 13.2372ZM14.3673 25.3784C13.4893 25.3384 13.0121 25.1922 12.6949 25.0686C12.2745 24.9048 11.9745 24.7098 11.6591 24.3948C11.3437 24.0797 11.1485 23.7799 10.9855 23.3594C10.8619 23.0423 10.7156 22.5648 10.6757 21.6865C10.6321 20.737 10.6233 20.4518 10.6233 18.0462C10.6233 15.6407 10.6328 15.3562 10.6757 14.4059C10.7157 13.5277 10.863 13.0511 10.9855 12.7331C11.1492 12.3125 11.3441 12.0124 11.6591 11.6969C11.9741 11.3815 12.2738 11.1862 12.6949 11.0232C13.0119 10.8995 13.4893 10.7532 14.3673 10.7133C15.3165 10.6696 15.6017 10.6609 18.0055 10.6609C20.4093 10.6609 20.6947 10.6703 21.6447 10.7133C22.5227 10.7533 22.9991 10.9006 23.3171 11.0232C23.7375 11.1862 24.0375 11.3819 24.3529 11.6969C24.6683 12.012 24.8628 12.3125 25.0265 12.7331C25.1501 13.0502 25.2964 13.5277 25.3363 14.4059C25.3799 15.3562 25.3887 15.6407 25.3887 18.0462C25.3887 20.4518 25.3799 20.7362 25.3363 21.6865C25.2963 22.5648 25.1493 23.0421 25.0265 23.3594C24.8628 23.7799 24.6679 24.08 24.3529 24.3948C24.0379 24.7095 23.7375 24.9048 23.3171 25.0686C23.0001 25.1922 22.5227 25.3385 21.6447 25.3784C20.6955 25.4221 20.4103 25.4308 18.0055 25.4308C15.6006 25.4308 15.3162 25.4221 14.3673 25.3784ZM14.2927 9.0927C13.334 9.13637 12.6789 9.28843 12.1069 9.5111C11.5144 9.74106 11.0128 10.0496 10.5116 10.5501C10.0104 11.0507 9.70277 11.5532 9.47288 12.1458C9.25027 12.7185 9.09826 13.3734 9.0546 14.3323C9.01022 15.2928 9.00006 15.5999 9.00006 18.0461C9.00006 20.4924 9.01022 20.7995 9.0546 21.76C9.09826 22.719 9.25027 23.3738 9.47288 23.9465C9.70277 24.5388 10.0105 25.0418 10.5116 25.5422C11.0127 26.0425 11.5144 26.3506 12.1069 26.5812C12.68 26.8039 13.334 26.9559 14.2927 26.9996C15.2534 27.0433 15.5599 27.0541 18.0055 27.0541C20.451 27.0541 20.758 27.044 21.7182 26.9996C22.677 26.9559 23.3316 26.8039 23.9041 26.5812C24.4962 26.3506 24.9981 26.0427 25.4993 25.5422C26.0005 25.0416 26.3075 24.5388 26.538 23.9465C26.7607 23.3738 26.9134 22.7189 26.9563 21.76C27 20.7988 27.0101 20.4924 27.0101 18.0461C27.0101 15.5999 27 15.2928 26.9563 14.3323C26.9127 13.3733 26.7607 12.7181 26.538 12.1458C26.3075 11.5535 25.9997 11.0515 25.4993 10.5501C24.9989 10.0488 24.4962 9.74106 23.9048 9.5111C23.3316 9.28843 22.6769 9.13565 21.7189 9.0927C20.7587 9.04903 20.4518 9.03815 18.0062 9.03815C15.5606 9.03815 15.2534 9.04831 14.2927 9.0927Z" fill="#3A4D39"/>
<path d="M15.0041 18.0461C15.0041 16.3879 16.3477 15.0432 18.0055 15.0432C19.6632 15.0432 21.0075 16.3879 21.0075 18.0461C21.0075 19.7044 19.6632 21.0491 18.0055 21.0491C16.3477 21.0491 15.0041 19.7044 15.0041 18.0461ZM13.3813 18.0461C13.3813 20.6008 15.4515 22.6716 18.0055 22.6716C20.5594 22.6716 22.6296 20.6008 22.6296 18.0461C22.6296 15.4915 20.5594 13.4206 18.0055 13.4206C15.4515 13.4206 13.3813 15.4915 13.3813 18.0461ZM21.732 13.2372C21.732 13.451 21.7952 13.6601 21.9139 13.8379C22.0326 14.0157 22.2013 14.1543 22.3987 14.2362C22.5962 14.3181 22.8134 14.3396 23.0231 14.298C23.2327 14.2563 23.4253 14.1535 23.5765 14.0023C23.7277 13.8512 23.8307 13.6587 23.8725 13.449C23.9143 13.2393 23.893 13.022 23.8112 12.8244C23.7295 12.6269 23.5911 12.458 23.4134 12.3391C23.2358 12.2203 23.0269 12.1568 22.8131 12.1567H22.8127C22.5262 12.1569 22.2515 12.2707 22.0489 12.4733C21.8462 12.6759 21.7323 12.9507 21.732 13.2372ZM14.3673 25.3784C13.4893 25.3384 13.0121 25.1922 12.6949 25.0686C12.2745 24.9048 11.9745 24.7098 11.6591 24.3948C11.3437 24.0797 11.1485 23.7799 10.9855 23.3594C10.8619 23.0423 10.7156 22.5648 10.6757 21.6865C10.6321 20.737 10.6233 20.4518 10.6233 18.0462C10.6233 15.6407 10.6328 15.3562 10.6757 14.4059C10.7157 13.5277 10.863 13.0511 10.9855 12.7331C11.1492 12.3125 11.3441 12.0124 11.6591 11.6969C11.9741 11.3815 12.2738 11.1862 12.6949 11.0232C13.0119 10.8995 13.4893 10.7532 14.3673 10.7133C15.3165 10.6696 15.6017 10.6609 18.0055 10.6609C20.4093 10.6609 20.6947 10.6703 21.6447 10.7133C22.5227 10.7533 22.9991 10.9006 23.3171 11.0232C23.7375 11.1862 24.0375 11.3819 24.3529 11.6969C24.6683 12.012 24.8628 12.3125 25.0265 12.7331C25.1501 13.0502 25.2964 13.5277 25.3363 14.4059C25.3799 15.3562 25.3887 15.6407 25.3887 18.0462C25.3887 20.4518 25.3799 20.7362 25.3363 21.6865C25.2963 22.5648 25.1493 23.0421 25.0265 23.3594C24.8628 23.7799 24.6679 24.08 24.3529 24.3948C24.0379 24.7095 23.7375 24.9048 23.3171 25.0686C23.0001 25.1922 22.5227 25.3385 21.6447 25.3784C20.6955 25.4221 20.4103 25.4308 18.0055 25.4308C15.6006 25.4308 15.3162 25.4221 14.3673 25.3784ZM14.2927 9.0927C13.334 9.13637 12.6789 9.28843 12.1069 9.5111C11.5144 9.74106 11.0128 10.0496 10.5116 10.5501C10.0104 11.0507 9.70277 11.5532 9.47288 12.1458C9.25027 12.7185 9.09826 13.3734 9.0546 14.3323C9.01022 15.2928 9.00006 15.5999 9.00006 18.0461C9.00006 20.4924 9.01022 20.7995 9.0546 21.76C9.09826 22.719 9.25027 23.3738 9.47288 23.9465C9.70277 24.5388 10.0105 25.0418 10.5116 25.5422C11.0127 26.0425 11.5144 26.3506 12.1069 26.5812C12.68 26.8039 13.334 26.9559 14.2927 26.9996C15.2534 27.0433 15.5599 27.0541 18.0055 27.0541C20.451 27.0541 20.758 27.044 21.7182 26.9996C22.677 26.9559 23.3316 26.8039 23.9041 26.5812C24.4962 26.3506 24.9981 26.0427 25.4993 25.5422C26.0005 25.0416 26.3075 24.5388 26.538 23.9465C26.7607 23.3738 26.9134 22.7189 26.9563 21.76C27 20.7988 27.0101 20.4924 27.0101 18.0461C27.0101 15.5999 27 15.2928 26.9563 14.3323C26.9127 13.3733 26.7607 12.7181 26.538 12.1458C26.3075 11.5535 25.9997 11.0515 25.4993 10.5501C24.9989 10.0488 24.4962 9.74106 23.9048 9.5111C23.3316 9.28843 22.6769 9.13565 21.7189 9.0927C20.7587 9.04903 20.4518 9.03815 18.0062 9.03815C15.5606 9.03815 15.2534 9.04831 14.2927 9.0927Z" fill="#3A4D39"/>
</svg>
