<svg width="36" height="36" viewBox="0 0 36 36" fill="none" xmlns="http://www.w3.org/2000/svg">
<path d="M19.7493 13.9777C19.7493 15.495 19.1439 16.9501 18.0663 18.023C16.9887 19.0958 15.5271 19.6986 14.0031 19.6986C12.4791 19.6986 11.0175 19.0958 9.9399 18.023C8.86227 16.9501 8.25687 15.495 8.25687 13.9777C8.25687 12.4605 8.86227 11.0054 9.9399 9.93249C11.0175 8.85963 12.4791 8.2569 14.0031 8.2569C15.5271 8.2569 16.9887 8.85963 18.0663 9.93249C19.1439 11.0054 19.7493 12.4605 19.7493 13.9777Z" fill="#3A4D39"/>
<path d="M27.7576 22.1933C27.7576 22.9449 27.6089 23.689 27.32 24.3833C27.0311 25.0777 26.6077 25.7085 26.074 26.24C25.5402 26.7714 24.9065 27.1929 24.2091 27.4805C23.5117 27.7681 22.7642 27.9161 22.0094 27.9161C20.4848 27.9161 19.0228 27.3132 17.9448 26.24C16.8668 25.1667 16.2612 23.7111 16.2612 22.1933C16.2612 20.6755 16.8668 19.2199 17.9448 18.1467C19.0228 17.0735 20.4848 16.4705 22.0094 16.4705C22.7642 16.4705 23.5117 16.6185 24.2091 16.9061C24.9065 17.1937 25.5402 17.6153 26.074 18.1467C26.6077 18.6781 27.0311 19.309 27.32 20.0033C27.6089 20.6976 27.7576 21.4418 27.7576 22.1933Z" fill="#3A4D39"/>
<path opacity="0.05" fill-rule="evenodd" clip-rule="evenodd" d="M8.27786 14.4672C8.36712 15.5481 8.76117 16.5817 9.41436 17.448C10.0675 18.3144 10.9531 18.9782 11.9685 19.3624C12.9839 19.7467 14.0875 19.8356 15.1514 19.619C16.2153 19.4025 17.196 18.8892 17.9798 18.1387C18.7637 17.3881 19.3186 16.4311 19.5802 15.3785C19.8419 14.3259 19.7996 13.2208 19.4582 12.1912C19.1169 11.1616 18.4905 10.2497 17.6515 9.56114C16.8126 8.87259 15.7955 8.4356 14.7182 8.30078C13.2553 8.78958 11.9191 9.59609 10.8055 10.6623C9.6919 11.7285 8.82867 13.028 8.27786 14.4672Z" fill="#3A4D39"/>
<path opacity="0.05" fill-rule="evenodd" clip-rule="evenodd" d="M27.7425 21.7825C27.6674 20.6884 27.2802 19.6386 26.6267 18.7575C25.9732 17.8763 25.0807 17.2005 24.0548 16.81C23.0288 16.4195 21.9124 16.3308 20.8376 16.5542C19.7627 16.7776 18.7744 17.3038 17.9895 18.0706C17.2047 18.8374 16.6561 19.8127 16.4087 20.8811C16.1613 21.9496 16.2254 23.0664 16.5934 24.0996C16.9615 25.1328 17.6181 26.0391 18.4856 26.7113C19.353 27.3834 20.3951 27.7933 21.4885 27.8925C22.9114 27.3865 24.2074 26.578 25.2871 25.523C26.3668 24.468 27.2046 23.1916 27.7425 21.7818V21.7825Z" fill="#3A4D39"/>
<path opacity="0.1" fill-rule="evenodd" clip-rule="evenodd" d="M8.54684 15.7753C8.84866 16.6975 9.37972 17.5283 10.0903 18.1898C10.801 18.8513 11.668 19.322 12.6102 19.5578C13.5525 19.7937 14.5392 19.7869 15.4781 19.5383C16.4171 19.2896 17.2775 18.8071 17.979 18.136C18.6805 17.4648 19.2002 16.6269 19.4894 15.7006C19.7785 14.7743 19.8278 13.7898 19.6325 12.8393C19.4373 11.8889 19.0038 11.0034 18.3728 10.2657C17.7418 9.52799 16.9338 8.96222 16.0244 8.62128C14.2322 8.99424 12.5809 9.86264 11.2589 11.1275C9.93681 12.3924 8.9971 14.0028 8.54684 15.7753Z" fill="#3A4D39"/>
<path opacity="0.1" fill-rule="evenodd" clip-rule="evenodd" d="M27.4814 20.4377C27.184 19.5046 26.6525 18.6629 25.9375 17.9929C25.2224 17.3229 24.3476 16.8467 23.3964 16.6098C22.4451 16.3729 21.4489 16.3831 20.5027 16.6395C19.5564 16.8958 18.6916 17.3897 17.9905 18.0742C17.2893 18.7588 16.7752 19.6111 16.497 20.5502C16.2189 21.4893 16.1859 22.4838 16.4012 23.4392C16.6166 24.3946 17.0731 25.2791 17.7274 26.0085C18.3816 26.7378 19.2118 27.2878 20.139 27.6062C21.9082 27.2095 23.5321 26.329 24.8288 25.063C26.1255 23.7969 27.044 22.1955 27.4814 20.4377Z" fill="#3A4D39"/>
<path opacity="0.1" fill-rule="evenodd" clip-rule="evenodd" d="M8.75809 16.3178C9.13196 17.1593 9.70313 17.8986 10.4233 18.4731C11.1435 19.0476 11.9916 19.4405 12.8959 19.6186C13.8001 19.7967 14.734 19.7548 15.6187 19.4964C16.5033 19.2379 17.3126 18.7706 17.9783 18.1338C18.644 17.497 19.1464 16.7096 19.4432 15.838C19.74 14.9663 19.8223 14.0362 19.6833 13.126C19.5443 12.2159 19.188 11.3526 18.6446 10.609C18.1011 9.8654 17.3865 9.26341 16.561 8.85388C14.6519 9.1507 12.8801 10.0256 11.4847 11.3604C10.0893 12.6952 9.13757 14.4255 8.75809 16.3178Z" fill="#3A4D39"/>
<path opacity="0.1" fill-rule="evenodd" clip-rule="evenodd" d="M27.2695 19.8841C26.8975 19.0328 26.3242 18.2844 25.5989 17.7033C24.8735 17.1222 24.0178 16.7256 23.1051 16.5477C22.1925 16.3698 21.2503 16.4159 20.3594 16.6819C19.4685 16.948 18.6556 17.4261 17.9905 18.0752C17.3254 18.7243 16.828 19.525 16.541 20.4084C16.254 21.2919 16.1861 22.2318 16.3429 23.1473C16.4998 24.0628 16.8768 24.9266 17.4416 25.6644C18.0063 26.4023 18.742 26.9922 19.5853 27.3834C21.4776 27.0622 23.2269 26.1723 24.5999 24.8324C25.9728 23.4925 26.9041 21.7663 27.2695 19.8841Z" fill="#3A4D39"/>
<path d="M27.1094 18.1291C27.1094 19.319 26.874 20.4973 26.4166 21.5966C25.9592 22.6959 25.2889 23.6948 24.4437 24.5362C23.5986 25.3776 22.5953 26.045 21.4911 26.5003C20.3869 26.9557 19.2034 27.1901 18.0082 27.1901C16.813 27.1901 15.6295 26.9557 14.5253 26.5003C13.4211 26.045 12.4178 25.3776 11.5727 24.5362C10.7276 23.6948 10.0572 22.6959 9.5998 21.5966C9.14242 20.4973 8.90701 19.319 8.90701 18.1291C8.90701 16.9392 9.14242 15.761 9.5998 14.6616C10.0572 13.5623 10.7276 12.5635 11.5727 11.7221C12.4178 10.8807 13.4211 10.2133 14.5253 9.7579C15.6295 9.30254 16.813 9.06818 18.0082 9.06818C19.2034 9.06818 20.3869 9.30254 21.4911 9.7579C22.5953 10.2133 23.5986 10.8807 24.4437 11.7221C25.2889 12.5635 25.9592 13.5623 26.4166 14.6616C26.874 15.761 27.1094 16.9392 27.1094 18.1291Z" fill="#3A4D39"/>
<path fill-rule="evenodd" clip-rule="evenodd" d="M15.449 17.8146C15.0812 17.5728 14.7743 17.2494 14.5522 16.8696C14.3378 16.4684 14.232 16.0182 14.2452 15.5636C14.2289 14.9866 14.426 14.4239 14.7989 13.983C15.1863 13.5402 15.6843 13.2078 16.2422 13.0197C16.8489 12.8056 17.4881 12.6981 18.1315 12.7019C18.5525 12.6979 18.9731 12.7301 19.3885 12.7982C19.6859 12.8441 19.9779 12.9194 20.2604 13.023C20.5197 13.1107 20.7539 13.26 20.9427 13.4581C21.0818 13.6211 21.1566 13.8291 21.1533 14.0433C21.1582 14.1545 21.1412 14.2657 21.1031 14.3704C21.0651 14.475 21.0068 14.5712 20.9315 14.6534C20.8603 14.7291 20.7739 14.7889 20.6779 14.8289C20.5819 14.8689 20.4785 14.8881 20.3745 14.8854C20.2315 14.8842 20.0903 14.8524 19.9606 14.7923C19.6407 14.6493 19.3113 14.5289 18.9746 14.4319C18.6646 14.3502 18.3451 14.3106 18.0246 14.3139C17.6069 14.2986 17.1936 14.4042 16.8346 14.618C16.683 14.7099 16.559 14.8409 16.4755 14.9971C16.3919 15.1533 16.3519 15.329 16.3596 15.5059C16.3574 15.7382 16.4459 15.9622 16.6063 16.1304C16.7969 16.328 17.0221 16.4891 17.2708 16.6055C17.5494 16.7436 17.9649 16.9266 18.5173 17.1547C18.5785 17.174 18.6381 17.1979 18.6957 17.2261C19.2348 17.4391 19.7516 17.7045 20.2387 18.0184C20.6235 18.269 20.9479 18.6015 21.1887 18.9922C21.4258 19.4028 21.5445 19.8709 21.5318 20.3447C21.5517 20.9249 21.3852 21.4962 21.0568 21.9751C20.7224 22.4286 20.2597 22.7716 19.7283 22.9601C19.088 23.1886 18.4113 23.2987 17.7314 23.2851C16.7971 23.3178 15.8672 23.142 15.0095 22.7707C14.7902 22.6731 14.5979 22.5238 14.4492 22.3355C14.3258 22.163 14.2618 21.9551 14.2668 21.7431C14.2607 21.6313 14.2789 21.5195 14.3203 21.4154C14.3616 21.3114 14.4251 21.2175 14.5063 21.1403C14.6765 20.9914 14.8975 20.9135 15.1236 20.9227C15.3755 20.9261 15.623 20.9897 15.8453 21.1082C16.1217 21.2462 16.3397 21.3497 16.4993 21.4188C16.6816 21.495 16.8705 21.5547 17.0635 21.597C17.3016 21.6492 17.5448 21.6742 17.7884 21.6717C18.2194 21.7025 18.6482 21.5883 19.0067 21.3473C19.1409 21.2425 19.2481 21.1071 19.3196 20.9526C19.391 20.7981 19.4245 20.6288 19.4174 20.4587C19.4178 20.2176 19.3258 19.9855 19.1602 19.81C18.9414 19.5844 18.6853 19.3982 18.4031 19.2595C18.0694 19.0839 17.6002 18.8698 16.9953 18.6173C16.4543 18.402 15.9363 18.1331 15.449 17.8146Z" fill="white"/>
</svg>
