<svg width="36" height="36" viewBox="0 0 36 36" fill="none" xmlns="http://www.w3.org/2000/svg">
<path d="M10.0153 17.3624C10.0153 17.3624 17.3394 14.2776 19.8795 13.1914C20.8533 12.7569 24.1555 11.3665 24.1555 11.3665C24.1555 11.3665 25.6796 10.7583 25.5525 12.2355C25.5102 12.8438 25.1715 14.9727 24.8328 17.2755C24.3248 20.5341 23.7744 24.0968 23.7744 24.0968C23.7744 24.0968 23.6898 25.0962 22.9701 25.2699C22.2504 25.4437 21.0649 24.6617 20.8533 24.4879C20.6839 24.3576 17.6781 22.4024 16.5774 21.4465C16.281 21.1858 15.9423 20.6645 16.6197 20.0562C18.1438 18.6224 19.9642 16.841 21.0649 15.7114C21.573 15.19 22.081 13.9735 19.9642 15.4507C16.9584 17.5796 13.9949 19.5783 13.9949 19.5783C13.9949 19.5783 13.3175 20.0127 12.0474 19.6217C10.7773 19.2307 9.29557 18.7093 9.29557 18.7093C9.29557 18.7093 8.27957 18.0576 10.0153 17.3624Z" fill="#3A4D39"/>
</svg>
