<svg width="36" height="36" viewBox="0 0 36 36" fill="none" xmlns="http://www.w3.org/2000/svg">
<path d="M9.00007 26.3336L10.2915 21.5316C9.25 19.661 8.91909 17.4782 9.35954 15.3837C9.79998 13.2891 10.9822 11.4234 12.6893 10.1289C14.3964 8.83439 16.5139 8.19787 18.6531 8.33616C20.7924 8.47446 22.8099 9.37829 24.3355 10.8818C25.8612 12.3853 26.7925 14.3876 26.9587 16.5214C27.1249 18.6551 26.5148 20.7771 25.2403 22.498C23.9658 24.2189 22.1125 25.4232 20.0204 25.89C17.9283 26.3568 15.7377 26.0547 13.8507 25.0392L9.00007 26.3336ZM14.0846 23.2422L14.3845 23.4199C15.7514 24.2287 17.3478 24.5634 18.925 24.3718C20.5023 24.1803 21.9717 23.4732 23.1044 22.3608C24.2371 21.2484 24.9694 19.7932 25.1872 18.222C25.405 16.6507 25.096 15.0516 24.3085 13.674C23.5209 12.2963 22.299 11.2174 20.8331 10.6055C19.3672 9.99352 17.7397 9.88285 16.2043 10.2907C14.6688 10.6986 13.3117 11.6021 12.3443 12.8604C11.3768 14.1187 10.8535 15.6612 10.8559 17.2474C10.8546 18.5627 11.219 19.8525 11.9084 20.9732L12.0965 21.2829L11.3745 23.963L14.0846 23.2422Z" fill="#3A4D39"/>
<path fill-rule="evenodd" clip-rule="evenodd" d="M21.3654 18.4805C21.1895 18.3389 20.9836 18.2392 20.7633 18.189C20.5431 18.1389 20.3142 18.1396 20.0943 18.1911C19.7638 18.3282 19.5502 18.8459 19.3367 19.1048C19.2916 19.1669 19.2255 19.2104 19.1506 19.2272C19.0757 19.244 18.9972 19.233 18.9299 19.1962C17.72 18.7231 16.7058 17.8555 16.0521 16.7343C15.9963 16.6643 15.97 16.5755 15.9785 16.4865C15.987 16.3975 16.0298 16.3153 16.0979 16.2571C16.336 16.0217 16.5109 15.7302 16.6063 15.4094C16.6275 15.0556 16.5463 14.7032 16.3724 14.3942C16.238 13.961 15.9822 13.5753 15.6352 13.2826C15.4562 13.2022 15.2578 13.1753 15.0638 13.205C14.8698 13.2347 14.6886 13.3198 14.542 13.4501C14.2875 13.6693 14.0855 13.9427 13.9509 14.2502C13.8163 14.5576 13.7524 14.8913 13.7641 15.2267C13.7649 15.415 13.7888 15.6025 13.8353 15.7851C13.9533 16.2236 14.1349 16.6426 14.3742 17.0287C14.5469 17.3245 14.7353 17.6109 14.9386 17.8866C15.5994 18.7921 16.4299 19.561 17.3842 20.1505C17.8631 20.45 18.3749 20.6936 18.9096 20.8764C19.465 21.1277 20.0782 21.2242 20.6841 21.1555C21.0293 21.1034 21.3564 20.9673 21.6365 20.7593C21.9167 20.5513 22.1414 20.2777 22.2908 19.9627C22.3785 19.7723 22.4052 19.5596 22.367 19.3535C22.2755 18.9322 21.7111 18.6835 21.3654 18.4805Z" fill="#3A4D39"/>
</svg>
