<svg width="36" height="36" viewBox="0 0 36 36" fill="none" xmlns="http://www.w3.org/2000/svg">
<path d="M28.0127 13.0485C27.7777 12.1648 27.0824 11.4677 26.1977 11.2288C24.5982 10.8001 18.1804 10.8001 18.1804 10.8001C18.1804 10.8001 11.7658 10.8001 10.163 11.2288C9.28162 11.4645 8.5863 12.1616 8.348 13.0485C7.92036 14.6521 7.92036 18.0001 7.92036 18.0001C7.92036 18.0001 7.92036 21.3481 8.348 22.9517C8.58304 23.8354 9.27835 24.5325 10.163 24.7714C11.7658 25.2001 18.1804 25.2001 18.1804 25.2001C18.1804 25.2001 24.5982 25.2001 26.1977 24.7714C27.0791 24.5357 27.7744 23.8387 28.0127 22.9517C28.4404 21.3481 28.4404 18.0001 28.4404 18.0001C28.4404 18.0001 28.4404 14.6521 28.0127 13.0485Z" fill="#3A4D39"/>
<path d="M16.1303 21.0863L21.4611 18.0001L16.1303 14.9139V21.0863Z" fill="white"/>
</svg>
