<svg width="128" height="128" viewBox="0 0 128 128" fill="none" xmlns="http://www.w3.org/2000/svg">
<path fill-rule="evenodd" clip-rule="evenodd" d="M50.9966 28.5981C48.3312 30.306 46.4166 33.4103 45.3766 37.7107L44.9411 39.5124L44.8535 42.4787L44.7658 45.4452L45.0842 47.0356C45.5333 49.2796 46.3328 51.507 47.3013 53.2115L48.1328 54.6746L49.3766 55.9408L50.6203 57.2071L52.1199 57.9481L53.6193 58.6892H55.8126H58.006L59.0909 58.1564L60.176 57.6237L60.9112 56.7882C61.9147 55.6484 62.714 54.089 63.4987 51.7411L64.1589 49.7653L64.3809 47.9616L64.6026 46.1578L64.4895 44.1642L64.3761 42.1705L63.8817 40.2718C62.8042 36.1342 61.2932 32.88 59.5477 30.9388L58.6943 29.9895L57.5908 29.4039C56.2533 28.6944 54.813 28.2761 53.1643 28.1181L51.9302 28L50.9966 28.5981ZM75.7588 30.0259C73.9964 30.9829 73.3735 31.4154 71.7211 32.828L70.6263 33.7641L69.472 35.3092L68.318 36.8542L67.3992 38.7529C66.2815 41.063 65.5731 43.4353 65.2938 45.8035L65.084 47.5818L65.3021 49.4331L65.5203 51.2843L66.0513 52.8256L66.5826 54.367L67.4668 55.697L68.3512 57.0273L69.1595 57.6886C70.1356 58.4872 71.2025 59.0471 72.3222 59.3486L73.1553 59.573L74.6084 59.5636L76.0615 59.5541L76.8798 59.2653C77.33 59.1065 78.1297 58.6598 78.6572 58.2726L79.6162 57.5686L80.8243 55.9454L82.0325 54.3222L83.3255 51.7495L84.6183 49.1767L85.2677 46.9078L85.9168 44.6388L85.9083 40.6516L85.8999 36.6643L85.5785 35.381C84.5813 31.4004 82.5628 29.6517 78.5119 29.2598L77.3727 29.1495L75.7588 30.0259ZM51.6382 29.9963C51.1641 30.3441 50.4108 31.044 49.9641 31.5515L49.1518 32.4745L48.4833 33.8643L47.8149 35.2542L47.4314 37.0984L47.0481 38.9428L47.1517 41.2212L47.2554 43.4996L47.8432 45.7781L48.4311 48.0565L49.3056 49.8603L50.1801 51.664L51.5297 53.0094L52.8795 54.3549L53.8152 54.6708C55.4712 55.23 57.1224 54.9275 58.6764 53.7799L59.5367 53.1446L60.1339 52.0244L60.731 50.904L61.061 49.1006L61.3912 47.297L61.3789 43.5946L61.3667 39.8921L61.0663 38.3731L60.7659 36.8542L60.008 35.3161L59.2498 33.7781L58.0123 32.4412C56.5795 30.894 55.39 30.0808 53.9367 29.6559C52.5998 29.2649 52.6431 29.2585 51.6382 29.9963ZM76.5684 31.2329C74.7426 32.202 73.2375 33.3845 72.1177 34.7295L71.1993 35.8329L70.3439 37.5911L69.4886 39.3493L69.0162 41.4244C68.7564 42.5659 68.4621 44.205 68.3623 45.067L68.1809 46.6344L68.3533 48.1459C68.6566 50.8058 69.425 52.7607 70.7385 54.2145L71.403 54.9501L72.2973 55.3705L73.1916 55.7908L74.3365 55.6989L75.4814 55.607L76.5118 55.0849L77.5421 54.563L78.6333 53.5221L79.7242 52.4814L80.4723 50.9334C81.5242 48.7567 82.3359 46.4443 83.1045 43.4337L83.7666 40.8415L83.8706 38.8243L83.9747 36.8071L83.5775 35.4991L83.1801 34.1909L82.5146 33.255C82.1487 32.7401 81.4916 32.0359 81.0545 31.6901L80.2599 31.0613L79.3041 30.7774C78.0562 30.407 78.1555 30.3905 76.5684 31.2329ZM34.9805 49.2753C34.4303 49.581 33.5629 50.1804 33.0533 50.607L32.1268 51.3828L31.2494 52.6669L30.372 53.951L29.9116 55.2759L29.4511 56.6006L29.2256 58.3619L29 60.1231L29.225 62.1593L29.4502 64.1954L30.0804 66.0489L30.7105 67.9026L31.6369 69.4406C32.1465 70.2862 33.0587 71.5202 33.6641 72.1825L34.7646 73.3866L36.0447 74.2376L37.3246 75.0886L38.8364 75.5975L40.3481 76.1065L42.0949 76.0163L43.8415 75.9263L44.8716 75.4224L45.9016 74.9185L46.765 73.9954C47.7612 72.9304 48.5777 71.4065 49.1674 69.5118L49.5809 68.1827L49.6829 66.5688L49.7846 64.9549L49.4993 63.2208L49.2141 61.4867L48.511 59.7082C47.0965 56.1301 45.2253 53.0932 43.4162 51.4398L42.3792 50.492L41.329 49.9949C40.1284 49.4264 38.54 48.9975 37.0254 48.8329L35.9811 48.7193L34.9805 49.2753ZM35.6014 50.5966L34.652 51.1445L33.6459 52.2095L32.64 53.2747L32.0877 54.4629L31.5353 55.6513L31.3232 56.9804L31.1112 58.3095L31.2313 59.5436C31.2974 60.2224 31.523 61.418 31.7324 62.2007L32.1131 63.6235L33.1927 65.706L34.2723 67.7883L35.7913 69.3346L37.3102 70.8807L38.6076 71.5117L39.9052 72.1428L41.0759 72.1492L42.2468 72.1557L43.2169 71.8242L44.1871 71.4927L44.9584 70.8325L45.7296 70.1723L46.0767 69.2723L46.424 68.3726V65.4296V62.4866L46.0755 60.6944C45.6398 58.4528 45.1469 57.1175 44.1998 55.6129L43.4586 54.4354L41.9408 53.0077L40.4231 51.5799L39.0566 50.9214C38.3049 50.5592 37.4336 50.2146 37.1203 50.1557L36.5507 50.0486L35.6014 50.5966ZM88.9548 54.2041C87.9105 54.5973 86.5934 55.1567 86.0277 55.4468L84.9992 55.9744L83.9975 56.9762C81.9292 59.0446 79.7723 62.9605 78.8573 66.3087L78.3452 68.1827L78.3336 70.6907L78.3221 73.1985L78.1191 72.9691C78.0074 72.8428 77.3461 72.0515 76.6493 71.2103C74.4857 68.5987 71.7501 66.6068 68.719 65.4362C67.25 64.8689 63.5204 64.0143 63.2481 64.1827C63.1651 64.234 62.1226 64.5402 60.9313 64.8632L58.7655 65.4506L57.5313 66.1211C56.8525 66.4898 55.4855 67.4004 54.4934 68.1449L52.6897 69.4983L50.1205 72.0682L47.5514 74.6382L45.7535 77.0386C42.004 82.0445 40.085 86.1745 39.4903 90.5178L39.2847 92.0189L39.4856 93.4866L39.6862 94.9543L40.2604 96.1286L40.8344 97.303L41.7987 98.1699L42.7631 99.0369L43.9289 99.5909C45.4228 100.301 46.9807 100.697 48.9035 100.857L50.4334 100.984L52.4161 100.757C54.8329 100.48 57.1611 99.9936 60.6642 99.0346C62.1262 98.6344 63.8403 98.214 64.4733 98.1003L65.6241 97.8935L66.6329 98.0849C67.1879 98.1901 68.3788 98.5878 69.2795 98.9687C70.1803 99.3498 71.6007 99.9034 72.4361 100.199L73.9551 100.737L75.3147 100.741L76.6744 100.745L77.8161 100.39C82.079 99.0633 85.7084 95.7071 86.2094 92.6286L86.3775 91.5949L86.2001 90.1956L86.0226 88.7961L85.3355 86.9386C84.9574 85.9169 84.0151 83.7668 83.2414 82.1605C82.4677 80.5542 81.8346 79.2247 81.8346 79.2061C81.8346 79.1873 82.4071 79.4501 83.107 79.79L84.3793 80.4078L85.7057 80.6315L87.0321 80.8553L88.1467 80.7543L89.261 80.6531L90.3421 80.1304L91.4231 79.6077L92.6684 78.3324C95.1265 75.8151 97.4095 71.9034 98.4813 68.3726L99 66.6637L98.9998 63.4359L98.9996 60.2082L98.6618 58.9854C97.681 55.4335 95.8875 54.0226 91.8028 53.5897L90.8535 53.489L88.9548 54.2041ZM89.4294 55.5353C87.1265 56.4349 86.8901 56.5691 85.7752 57.6121L84.8505 58.4769L84.1896 59.6589C82.9249 61.9204 81.8468 65.448 81.4485 68.6279L81.2499 70.2126L81.4486 71.6413C81.8677 74.6548 83.3042 76.3302 85.8584 76.7847L86.6763 76.9304L87.6773 76.8014L88.6783 76.6723L89.7659 76.1422L90.8535 75.6119L91.907 74.5555L92.9604 73.499L93.9288 71.6003C95.0289 69.4434 95.8577 67.1948 96.571 64.4326L97.0622 62.5308L96.9957 61.0806L96.9293 59.6304L96.3042 58.3607L95.6792 57.0913L94.8946 56.4197C93.9764 55.6338 92.8327 55.0644 91.8977 54.9279L91.2332 54.8309L89.4294 55.5353ZM62.9426 65.7182C62.5249 65.8604 61.4641 66.1657 60.5854 66.397L58.9878 66.8171L57.2716 67.9651L55.5554 69.113L53.485 71.1133C49.0466 75.4013 45.1327 81.5055 43.3114 86.9798L42.743 88.6886L42.5607 90.2076L42.3784 91.7265L42.529 92.7849C42.6119 93.367 42.8622 94.2011 43.0855 94.6385L43.4912 95.4341L44.2769 96.0031L45.0626 96.5722L46.2854 96.95L47.5083 97.3277L49.5293 97.3246L51.5504 97.3218L53.2593 96.9569C54.1991 96.756 55.6516 96.3861 56.487 96.1347C57.3225 95.8831 59.074 95.3585 60.3794 94.9687L62.7527 94.2599L64.5565 94.1559L66.3603 94.0517L67.5944 94.3684C68.2732 94.5427 69.5121 94.9908 70.3475 95.3642C71.183 95.7377 72.6355 96.3421 73.5753 96.7072L75.2841 97.371L76.7082 97.2857L78.1322 97.2006L78.9866 96.7645C79.4565 96.5247 80.3263 95.9897 80.9197 95.5756L81.9981 94.8227L82.4899 94.1132L82.9816 93.4036L83.1888 92.2278L83.3959 91.0519L83.0848 89.2056L82.7737 87.3595L82.0093 85.0811L81.2449 82.8026L79.7394 79.7647L78.2341 76.7268L76.9489 74.9324L75.6639 73.1379L73.7652 71.2206C70.6749 68.0997 65.6184 65.1687 63.8008 65.4446C63.7465 65.4527 63.3603 65.576 62.9426 65.7182Z" fill="#3A4D39"/>
</svg>
