<svg width="327" height="128" viewBox="0 0 327 128" fill="none" xmlns="http://www.w3.org/2000/svg">
<path fill-rule="evenodd" clip-rule="evenodd" d="M44.9966 28.5981C42.3312 30.306 40.4166 33.4103 39.3766 37.7107L38.9411 39.5124L38.8535 42.4787L38.7658 45.4452L39.0842 47.0356C39.5333 49.2796 40.3328 51.507 41.3013 53.2115L42.1328 54.6746L43.3766 55.9408L44.6203 57.2071L46.1199 57.9481L47.6193 58.6892H49.8126H52.006L53.0909 58.1564L54.176 57.6237L54.9112 56.7882C55.9147 55.6484 56.714 54.089 57.4987 51.7411L58.1589 49.7653L58.3809 47.9616L58.6026 46.1578L58.4895 44.1642L58.3761 42.1705L57.8817 40.2718C56.8042 36.1342 55.2932 32.88 53.5477 30.9388L52.6943 29.9895L51.5908 29.4039C50.2533 28.6944 48.813 28.2761 47.1643 28.1181L45.9302 28L44.9966 28.5981ZM69.7588 30.0259C67.9964 30.9829 67.3735 31.4154 65.7211 32.828L64.6263 33.7641L63.472 35.3092L62.318 36.8542L61.3992 38.7529C60.2815 41.063 59.5731 43.4353 59.2938 45.8035L59.084 47.5818L59.3021 49.4331L59.5203 51.2843L60.0514 52.8256L60.5826 54.367L61.4668 55.697L62.3512 57.0273L63.1595 57.6886C64.1356 58.4872 65.2025 59.0471 66.3222 59.3486L67.1553 59.573L68.6084 59.5636L70.0615 59.5541L70.8798 59.2653C71.33 59.1065 72.1297 58.6598 72.6572 58.2726L73.6162 57.5686L74.8243 55.9454L76.0325 54.3222L77.3255 51.7495L78.6183 49.1767L79.2677 46.9078L79.9168 44.6388L79.9083 40.6516L79.8999 36.6643L79.5785 35.381C78.5813 31.4004 76.5628 29.6517 72.5119 29.2598L71.3727 29.1495L69.7588 30.0259ZM45.6382 29.9963C45.1641 30.3441 44.4108 31.044 43.9641 31.5515L43.1518 32.4745L42.4833 33.8643L41.8149 35.2542L41.4314 37.0984L41.0481 38.9428L41.1517 41.2212L41.2554 43.4996L41.8432 45.7781L42.4311 48.0565L43.3056 49.8603L44.1801 51.664L45.5297 53.0094L46.8795 54.3549L47.8152 54.6708C49.4712 55.23 51.1224 54.9275 52.6764 53.7799L53.5367 53.1446L54.1339 52.0244L54.731 50.904L55.061 49.1006L55.3912 47.297L55.3789 43.5946L55.3667 39.8921L55.0663 38.3731L54.7659 36.8542L54.008 35.3161L53.2498 33.7781L52.0123 32.4412C50.5795 30.894 49.39 30.0808 47.9367 29.6559C46.5998 29.2649 46.6431 29.2585 45.6382 29.9963ZM70.5684 31.2329C68.7426 32.202 67.2375 33.3845 66.1177 34.7295L65.1993 35.8329L64.3439 37.5911L63.4886 39.3493L63.0162 41.4244C62.7564 42.5659 62.4621 44.205 62.3623 45.067L62.1809 46.6344L62.3533 48.1459C62.6566 50.8058 63.425 52.7607 64.7385 54.2145L65.403 54.9501L66.2973 55.3705L67.1916 55.7908L68.3365 55.6989L69.4814 55.607L70.5118 55.0849L71.5421 54.563L72.6333 53.5221L73.7242 52.4814L74.4723 50.9334C75.5242 48.7567 76.3359 46.4443 77.1045 43.4337L77.7666 40.8415L77.8706 38.8243L77.9747 36.8071L77.5775 35.4991L77.1801 34.1909L76.5146 33.255C76.1487 32.7401 75.4916 32.0359 75.0545 31.6901L74.2599 31.0613L73.3041 30.7774C72.0562 30.407 72.1555 30.3905 70.5684 31.2329ZM28.9805 49.2753C28.4303 49.581 27.5629 50.1804 27.0533 50.607L26.1268 51.3828L25.2494 52.6669L24.372 53.951L23.9116 55.2759L23.4511 56.6006L23.2256 58.3619L23 60.1231L23.225 62.1593L23.4502 64.1954L24.0804 66.0489L24.7105 67.9026L25.6369 69.4406C26.1465 70.2862 27.0587 71.5202 27.6641 72.1825L28.7646 73.3866L30.0447 74.2376L31.3246 75.0886L32.8364 75.5975L34.3481 76.1065L36.0949 76.0163L37.8415 75.9263L38.8716 75.4224L39.9016 74.9185L40.765 73.9954C41.7612 72.9304 42.5776 71.4065 43.1674 69.5118L43.5809 68.1827L43.6829 66.5688L43.7846 64.9549L43.4993 63.2208L43.2141 61.4867L42.511 59.7082C41.0965 56.1301 39.2253 53.0932 37.4162 51.4398L36.3792 50.492L35.329 49.9949C34.1284 49.4264 32.54 48.9975 31.0254 48.8329L29.9811 48.7193L28.9805 49.2753ZM29.6014 50.5966L28.652 51.1445L27.6459 52.2095L26.64 53.2747L26.0877 54.4629L25.5353 55.6513L25.3232 56.9804L25.1112 58.3095L25.2313 59.5436C25.2974 60.2224 25.523 61.418 25.7324 62.2007L26.1131 63.6235L27.1927 65.706L28.2723 67.7883L29.7913 69.3346L31.3102 70.8807L32.6076 71.5117L33.9052 72.1428L35.0759 72.1492L36.2468 72.1557L37.2169 71.8242L38.1871 71.4927L38.9584 70.8325L39.7296 70.1723L40.0767 69.2723L40.424 68.3726V65.4296V62.4866L40.0755 60.6944C39.6398 58.4528 39.1469 57.1175 38.1998 55.6129L37.4586 54.4354L35.9408 53.0077L34.4231 51.5799L33.0566 50.9214C32.3049 50.5592 31.4336 50.2146 31.1203 50.1557L30.5507 50.0486L29.6014 50.5966ZM82.9548 54.2041C81.9105 54.5973 80.5934 55.1567 80.0277 55.4468L78.9992 55.9744L77.9975 56.9762C75.9292 59.0446 73.7723 62.9605 72.8573 66.3087L72.3452 68.1827L72.3336 70.6907L72.3221 73.1985L72.1191 72.9691C72.0074 72.8428 71.3461 72.0515 70.6493 71.2103C68.4857 68.5987 65.7501 66.6068 62.719 65.4362C61.25 64.8689 57.5204 64.0143 57.2481 64.1827C57.1651 64.234 56.1226 64.5402 54.9313 64.8632L52.7655 65.4506L51.5313 66.1211C50.8525 66.4898 49.4855 67.4004 48.4934 68.1449L46.6897 69.4983L44.1205 72.0682L41.5514 74.6382L39.7535 77.0386C36.004 82.0445 34.085 86.1745 33.4903 90.5178L33.2847 92.0189L33.4856 93.4866L33.6862 94.9543L34.2604 96.1286L34.8344 97.303L35.7987 98.1699L36.7631 99.0369L37.9289 99.5909C39.4228 100.301 40.9807 100.697 42.9035 100.857L44.4334 100.984L46.4161 100.757C48.8329 100.48 51.1611 99.9936 54.6642 99.0346C56.1262 98.6344 57.8403 98.214 58.4733 98.1003L59.6241 97.8935L60.6329 98.0849C61.1879 98.1901 62.3788 98.5878 63.2795 98.9687C64.1803 99.3498 65.6007 99.9034 66.4361 100.199L67.9551 100.737L69.3147 100.741L70.6744 100.745L71.8161 100.39C76.079 99.0633 79.7084 95.7071 80.2094 92.6286L80.3775 91.5949L80.2001 90.1956L80.0226 88.7961L79.3355 86.9386C78.9574 85.9169 78.0151 83.7668 77.2414 82.1605C76.4677 80.5542 75.8346 79.2247 75.8346 79.2061C75.8346 79.1873 76.4071 79.4501 77.107 79.79L78.3793 80.4078L79.7057 80.6315L81.0321 80.8553L82.1467 80.7543L83.261 80.6531L84.3421 80.1304L85.4231 79.6077L86.6684 78.3324C89.1265 75.8151 91.4095 71.9034 92.4813 68.3726L93 66.6637L92.9998 63.4359L92.9996 60.2082L92.6618 58.9854C91.681 55.4335 89.8875 54.0226 85.8028 53.5897L84.8535 53.489L82.9548 54.2041ZM83.4294 55.5353C81.1265 56.4349 80.8901 56.5691 79.7752 57.6121L78.8505 58.4769L78.1896 59.6589C76.9249 61.9204 75.8468 65.448 75.4485 68.6279L75.2499 70.2126L75.4486 71.6413C75.8677 74.6548 77.3042 76.3302 79.8584 76.7847L80.6763 76.9304L81.6773 76.8014L82.6783 76.6723L83.7659 76.1422L84.8535 75.6119L85.907 74.5555L86.9604 73.499L87.9288 71.6003C89.0289 69.4434 89.8577 67.1948 90.571 64.4326L91.0622 62.5308L90.9957 61.0806L90.9293 59.6304L90.3042 58.3607L89.6792 57.0913L88.8946 56.4197C87.9764 55.6338 86.8327 55.0644 85.8977 54.9279L85.2332 54.8309L83.4294 55.5353ZM56.9426 65.7182C56.5249 65.8604 55.4641 66.1657 54.5854 66.397L52.9878 66.8171L51.2716 67.9651L49.5554 69.113L47.485 71.1133C43.0466 75.4013 39.1327 81.5055 37.3114 86.9798L36.743 88.6886L36.5607 90.2076L36.3784 91.7265L36.529 92.7849C36.6119 93.367 36.8622 94.2011 37.0855 94.6385L37.4912 95.4341L38.2769 96.0031L39.0626 96.5722L40.2854 96.95L41.5083 97.3277L43.5293 97.3246L45.5504 97.3218L47.2593 96.9569C48.1991 96.756 49.6516 96.3861 50.487 96.1347C51.3225 95.8831 53.074 95.3585 54.3794 94.9687L56.7527 94.2599L58.5565 94.1559L60.3603 94.0517L61.5944 94.3684C62.2732 94.5427 63.5121 94.9908 64.3475 95.3642C65.183 95.7377 66.6355 96.3421 67.5753 96.7072L69.2841 97.371L70.7082 97.2857L72.1322 97.2006L72.9866 96.7645C73.4565 96.5247 74.3263 95.9897 74.9197 95.5756L75.9981 94.8227L76.4899 94.1132L76.9816 93.4036L77.1888 92.2278L77.3959 91.0519L77.0848 89.2056L76.7737 87.3595L76.0093 85.0811L75.2449 82.8026L73.7394 79.7647L72.2341 76.7268L70.9489 74.9324L69.6639 73.1379L67.7652 71.2206C64.6749 68.0997 59.6184 65.1687 57.8008 65.4446C57.7465 65.4527 57.3603 65.576 56.9426 65.7182Z" fill="#3A4D39"/>
<path d="M103.587 78C103.213 78 102.905 77.879 102.663 77.637C102.421 77.395 102.3 77.087 102.3 76.713V53.514C102.3 53.14 102.421 52.832 102.663 52.59C102.905 52.348 103.213 52.227 103.587 52.227H110.187C111.815 52.227 113.256 52.59 114.51 53.316C115.764 54.02 116.743 54.999 117.447 56.253C118.151 57.507 118.503 58.959 118.503 60.609C118.503 62.215 118.151 63.645 117.447 64.899C116.743 66.131 115.764 67.11 114.51 67.836C113.256 68.54 111.815 68.892 110.187 68.892H104.874V76.713C104.874 77.087 104.753 77.395 104.511 77.637C104.269 77.879 103.961 78 103.587 78ZM104.874 66.417H110.187C111.309 66.417 112.31 66.175 113.19 65.691C114.07 65.185 114.752 64.492 115.236 63.612C115.742 62.732 115.995 61.731 115.995 60.609C115.995 59.443 115.742 58.42 115.236 57.54C114.752 56.66 114.07 55.967 113.19 55.461C112.31 54.955 111.309 54.702 110.187 54.702H104.874V66.417ZM145.604 78C145.318 78 145.065 77.923 144.845 77.769C144.625 77.615 144.471 77.417 144.383 77.175L139.235 61.731C139.103 61.181 139.114 60.752 139.268 60.444C139.422 60.114 139.73 59.949 140.192 59.949C140.478 59.949 140.731 60.026 140.951 60.18C141.171 60.334 141.336 60.576 141.446 60.906L146.033 74.931H145.307L149.564 60.939C149.652 60.653 149.795 60.422 149.993 60.246C150.213 60.048 150.488 59.949 150.818 59.949C151.148 59.949 151.412 60.037 151.61 60.213C151.83 60.389 151.984 60.631 152.072 60.939L156.131 74.601H155.57L160.058 60.906C160.278 60.268 160.685 59.949 161.279 59.949C161.763 59.949 162.093 60.136 162.269 60.51C162.445 60.862 162.445 61.269 162.269 61.731L157.121 77.175C157.033 77.417 156.879 77.615 156.659 77.769C156.461 77.923 156.219 78 155.933 78C155.647 78 155.383 77.923 155.141 77.769C154.921 77.615 154.778 77.417 154.712 77.175L150.554 63.381H150.95L146.792 77.175C146.704 77.439 146.55 77.648 146.33 77.802C146.11 77.934 145.868 78 145.604 78ZM172.243 78.165C170.945 78.165 169.658 77.945 168.382 77.505C167.106 77.065 166.072 76.405 165.28 75.525C165.038 75.261 164.939 74.964 164.983 74.634C165.027 74.304 165.192 74.018 165.478 73.776C165.786 73.556 166.105 73.468 166.435 73.512C166.765 73.556 167.04 73.699 167.26 73.941C167.788 74.557 168.481 75.03 169.339 75.36C170.219 75.69 171.187 75.855 172.243 75.855C173.871 75.855 175.048 75.58 175.774 75.03C176.5 74.458 176.874 73.776 176.896 72.984C176.896 72.192 176.522 71.543 175.774 71.037C175.026 70.509 173.794 70.102 172.078 69.816C169.856 69.464 168.228 68.848 167.194 67.968C166.16 67.088 165.643 66.043 165.643 64.833C165.643 63.711 165.94 62.776 166.534 62.028C167.128 61.28 167.92 60.719 168.91 60.345C169.9 59.971 170.989 59.784 172.177 59.784C173.651 59.784 174.916 60.037 175.972 60.543C177.05 61.049 177.919 61.731 178.579 62.589C178.799 62.875 178.887 63.172 178.843 63.48C178.799 63.788 178.623 64.041 178.315 64.239C178.051 64.393 177.743 64.448 177.391 64.404C177.061 64.338 176.775 64.173 176.533 63.909C175.983 63.271 175.345 62.809 174.619 62.523C173.893 62.215 173.057 62.061 172.111 62.061C170.901 62.061 169.933 62.314 169.207 62.82C168.481 63.304 168.118 63.92 168.118 64.668C168.118 65.174 168.25 65.614 168.514 65.988C168.8 66.362 169.273 66.692 169.933 66.978C170.615 67.264 171.561 67.506 172.771 67.704C174.421 67.968 175.719 68.364 176.665 68.892C177.633 69.398 178.315 70.003 178.711 70.707C179.129 71.389 179.338 72.137 179.338 72.951C179.338 73.985 179.03 74.898 178.414 75.69C177.82 76.46 176.984 77.065 175.906 77.505C174.85 77.945 173.629 78.165 172.243 78.165ZM198.875 78.231C197.445 78.231 196.213 77.978 195.179 77.472C194.145 76.944 193.342 76.218 192.77 75.294C192.198 74.37 191.912 73.303 191.912 72.093C191.912 70.685 192.352 69.387 193.232 68.199C194.112 66.989 195.443 65.691 197.225 64.305L199.997 62.127C200.943 61.379 201.647 60.62 202.109 59.85C202.593 59.058 202.835 58.244 202.835 57.408C202.835 56.506 202.527 55.725 201.911 55.065C201.295 54.383 200.426 54.042 199.304 54.042C198.314 54.042 197.489 54.361 196.829 54.999C196.191 55.615 195.872 56.341 195.872 57.177C195.872 57.859 196.004 58.497 196.268 59.091C196.554 59.663 196.983 60.235 197.555 60.807L212.372 75.591C212.636 75.877 212.79 76.141 212.834 76.383C212.878 76.625 212.768 76.889 212.504 77.175C211.932 77.747 211.371 77.747 210.821 77.175L195.839 62.193C195.135 61.489 194.574 60.719 194.156 59.883C193.76 59.025 193.562 58.134 193.562 57.21C193.562 56.198 193.815 55.296 194.321 54.504C194.827 53.712 195.509 53.085 196.367 52.623C197.225 52.161 198.204 51.93 199.304 51.93C200.426 51.93 201.427 52.172 202.307 52.656C203.187 53.14 203.88 53.8 204.386 54.636C204.892 55.45 205.145 56.385 205.145 57.441C205.123 58.277 204.947 59.058 204.617 59.784C204.309 60.488 203.858 61.17 203.264 61.83C202.67 62.468 201.955 63.117 201.119 63.777L198.38 65.889C197.434 66.637 196.664 67.363 196.07 68.067C195.476 68.749 195.036 69.42 194.75 70.08C194.486 70.74 194.354 71.411 194.354 72.093C194.354 73.281 194.75 74.238 195.542 74.964C196.334 75.668 197.467 76.02 198.941 76.02C200.063 76.02 201.086 75.734 202.01 75.162C202.956 74.59 203.924 73.776 204.914 72.72L209.93 67.407C210.194 67.143 210.447 66.989 210.689 66.945C210.931 66.879 211.195 66.978 211.481 67.242C211.745 67.484 211.888 67.748 211.91 68.034C211.932 68.32 211.8 68.606 211.514 68.892L206.498 74.205C205.354 75.459 204.166 76.449 202.934 77.175C201.724 77.879 200.371 78.231 198.875 78.231ZM228.433 78C228.059 78 227.751 77.879 227.509 77.637C227.267 77.395 227.146 77.087 227.146 76.713V53.514C227.146 53.14 227.267 52.832 227.509 52.59C227.751 52.348 228.059 52.227 228.433 52.227H235.033C236.661 52.227 238.102 52.59 239.356 53.316C240.61 54.02 241.589 54.999 242.293 56.253C242.997 57.507 243.349 58.959 243.349 60.609C243.349 62.215 242.997 63.645 242.293 64.899C241.589 66.131 240.61 67.11 239.356 67.836C238.102 68.54 236.661 68.892 235.033 68.892H229.72V76.713C229.72 77.087 229.599 77.395 229.357 77.637C229.115 77.879 228.807 78 228.433 78ZM229.72 66.417H235.033C236.155 66.417 237.156 66.175 238.036 65.691C238.916 65.185 239.598 64.492 240.082 63.612C240.588 62.732 240.841 61.731 240.841 60.609C240.841 59.443 240.588 58.42 240.082 57.54C239.598 56.66 238.916 55.967 238.036 55.461C237.156 54.955 236.155 54.702 235.033 54.702H229.72V66.417ZM254.876 78.198C253.314 78.198 251.917 77.879 250.685 77.241C249.453 76.581 248.474 75.624 247.748 74.37C247.044 73.116 246.692 71.587 246.692 69.783V61.203C246.692 60.851 246.813 60.554 247.055 60.312C247.297 60.07 247.594 59.949 247.946 59.949C248.32 59.949 248.628 60.07 248.87 60.312C249.112 60.554 249.233 60.851 249.233 61.203V69.783C249.233 71.147 249.486 72.269 249.992 73.149C250.52 74.029 251.224 74.689 252.104 75.129C253.006 75.569 254.018 75.789 255.14 75.789C256.218 75.789 257.186 75.58 258.044 75.162C258.924 74.744 259.617 74.172 260.123 73.446C260.629 72.72 260.882 71.895 260.882 70.971H262.697C262.631 72.357 262.246 73.6 261.542 74.7C260.86 75.778 259.936 76.636 258.77 77.274C257.604 77.89 256.306 78.198 254.876 78.198ZM262.136 78C261.762 78 261.454 77.89 261.212 77.67C260.992 77.428 260.882 77.109 260.882 76.713V61.203C260.882 60.829 260.992 60.532 261.212 60.312C261.454 60.07 261.762 59.949 262.136 59.949C262.51 59.949 262.818 60.07 263.06 60.312C263.302 60.532 263.423 60.829 263.423 61.203V76.713C263.423 77.109 263.302 77.428 263.06 77.67C262.818 77.89 262.51 78 262.136 78ZM270.642 85.722C270.246 85.722 269.927 85.601 269.685 85.359C269.465 85.139 269.355 84.831 269.355 84.435V68.859C269.377 67.143 269.784 65.603 270.576 64.239C271.39 62.853 272.479 61.764 273.843 60.972C275.229 60.18 276.78 59.784 278.496 59.784C280.256 59.784 281.829 60.191 283.215 61.005C284.601 61.797 285.69 62.886 286.482 64.272C287.296 65.658 287.703 67.231 287.703 68.991C287.703 70.729 287.307 72.291 286.515 73.677C285.745 75.063 284.689 76.163 283.347 76.977C282.005 77.769 280.487 78.165 278.793 78.165C277.319 78.165 275.977 77.857 274.767 77.241C273.579 76.603 272.622 75.767 271.896 74.733V84.435C271.896 84.831 271.775 85.139 271.533 85.359C271.313 85.601 271.016 85.722 270.642 85.722ZM278.496 75.855C279.772 75.855 280.916 75.558 281.928 74.964C282.94 74.37 283.732 73.556 284.304 72.522C284.898 71.466 285.195 70.289 285.195 68.991C285.195 67.671 284.898 66.494 284.304 65.46C283.732 64.426 282.94 63.612 281.928 63.018C280.916 62.402 279.772 62.094 278.496 62.094C277.242 62.094 276.109 62.402 275.097 63.018C274.085 63.612 273.293 64.426 272.721 65.46C272.149 66.494 271.863 67.671 271.863 68.991C271.863 70.289 272.149 71.466 272.721 72.522C273.293 73.556 274.085 74.37 275.097 74.964C276.109 75.558 277.242 75.855 278.496 75.855ZM298.99 78.165C297.692 78.165 296.405 77.945 295.129 77.505C293.853 77.065 292.819 76.405 292.027 75.525C291.785 75.261 291.686 74.964 291.73 74.634C291.774 74.304 291.939 74.018 292.225 73.776C292.533 73.556 292.852 73.468 293.182 73.512C293.512 73.556 293.787 73.699 294.007 73.941C294.535 74.557 295.228 75.03 296.086 75.36C296.966 75.69 297.934 75.855 298.99 75.855C300.618 75.855 301.795 75.58 302.521 75.03C303.247 74.458 303.621 73.776 303.643 72.984C303.643 72.192 303.269 71.543 302.521 71.037C301.773 70.509 300.541 70.102 298.825 69.816C296.603 69.464 294.975 68.848 293.941 67.968C292.907 67.088 292.39 66.043 292.39 64.833C292.39 63.711 292.687 62.776 293.281 62.028C293.875 61.28 294.667 60.719 295.657 60.345C296.647 59.971 297.736 59.784 298.924 59.784C300.398 59.784 301.663 60.037 302.719 60.543C303.797 61.049 304.666 61.731 305.326 62.589C305.546 62.875 305.634 63.172 305.59 63.48C305.546 63.788 305.37 64.041 305.062 64.239C304.798 64.393 304.49 64.448 304.138 64.404C303.808 64.338 303.522 64.173 303.28 63.909C302.73 63.271 302.092 62.809 301.366 62.523C300.64 62.215 299.804 62.061 298.858 62.061C297.648 62.061 296.68 62.314 295.954 62.82C295.228 63.304 294.865 63.92 294.865 64.668C294.865 65.174 294.997 65.614 295.261 65.988C295.547 66.362 296.02 66.692 296.68 66.978C297.362 67.264 298.308 67.506 299.518 67.704C301.168 67.968 302.466 68.364 303.412 68.892C304.38 69.398 305.062 70.003 305.458 70.707C305.876 71.389 306.085 72.137 306.085 72.951C306.085 73.985 305.777 74.898 305.161 75.69C304.567 76.46 303.731 77.065 302.653 77.505C301.597 77.945 300.376 78.165 298.99 78.165Z" fill="#739072"/>
<path fill-rule="evenodd" clip-rule="evenodd" d="M125.342 60.1475C124.695 60.5687 124.23 61.3344 123.977 62.3949L123.871 62.8393L123.85 63.5709L123.829 64.3025L123.906 64.6947C124.015 65.2482 124.209 65.7975 124.445 66.2179L124.647 66.5788L124.949 66.891L125.251 67.2033L125.615 67.3861L125.979 67.5689H126.512H127.044L127.308 67.4375L127.571 67.3061L127.75 67.1C127.994 66.8189 128.188 66.4343 128.378 65.8553L128.539 65.368L128.592 64.9231L128.646 64.4783L128.619 63.9866L128.591 63.4949L128.471 63.0266C128.21 62.0061 127.843 61.2036 127.419 60.7248L127.211 60.4907L126.943 60.3462C126.619 60.1712 126.269 60.0681 125.868 60.0291L125.569 60L125.342 60.1475ZM131.356 60.4997C130.928 60.7357 130.776 60.8423 130.375 61.1907L130.109 61.4216L129.829 61.8027L129.549 62.1837L129.326 62.652C129.054 63.2217 128.882 63.8068 128.814 64.3909L128.763 64.8295L128.816 65.286L128.869 65.7426L128.998 66.1228L129.127 66.5029L129.342 66.8309L129.557 67.159L129.753 67.3221C129.99 67.5191 130.249 67.6572 130.521 67.7315L130.723 67.7869L131.076 67.7845L131.429 67.7822L131.628 67.711C131.737 67.6718 131.932 67.5616 132.06 67.4661L132.293 67.2925L132.586 66.8922L132.879 66.4918L133.193 65.8573L133.507 65.2228L133.665 64.6632L133.823 64.1036L133.821 63.1203L133.819 62.1369L133.74 61.8204C133.498 60.8386 133.008 60.4074 132.024 60.3107L131.748 60.2835L131.356 60.4997ZM125.498 60.4923C125.383 60.5781 125.2 60.7507 125.091 60.8759L124.894 61.1035L124.732 61.4463L124.569 61.7891L124.476 62.2439L124.383 62.6988L124.408 63.2607L124.433 63.8227L124.576 64.3846L124.719 64.9465L124.931 65.3914L125.144 65.8363L125.472 66.1681L125.799 66.4999L126.027 66.5778C126.429 66.7157 126.83 66.6411 127.207 66.3581L127.416 66.2014L127.561 65.9251L127.706 65.6488L127.786 65.204L127.866 64.7592L127.863 63.8461L127.86 62.933L127.788 62.5583L127.715 62.1837L127.531 61.8044L127.346 61.4251L127.046 61.0953C126.698 60.7137 126.409 60.5132 126.056 60.4084C125.731 60.312 125.742 60.3104 125.498 60.4923ZM131.552 60.7973C131.109 61.0363 130.743 61.328 130.471 61.6597L130.248 61.9318L130.041 62.3654L129.833 62.7991L129.718 63.3108C129.655 63.5924 129.584 63.9966 129.559 64.2092L129.515 64.5958L129.557 64.9686C129.631 65.6246 129.817 66.1067 130.136 66.4653L130.298 66.6467L130.515 66.7504L130.732 66.8541L131.01 66.8314L131.288 66.8087L131.539 66.68L131.789 66.5512L132.054 66.2945L132.319 66.0379L132.5 65.6561C132.756 65.1192 132.953 64.5489 133.14 63.8064L133.3 63.1671L133.326 62.6696L133.351 62.1721L133.255 61.8495L133.158 61.5269L132.996 61.296C132.908 61.1691 132.748 60.9954 132.642 60.9101L132.449 60.755L132.217 60.685C131.914 60.5936 131.938 60.5896 131.552 60.7973ZM121.452 65.2471C121.319 65.3225 121.108 65.4703 120.984 65.5756L120.759 65.7669L120.546 66.0836L120.333 66.4003L120.221 66.7271L120.11 67.0538L120.055 67.4881L120 67.9225L120.055 68.4247L120.109 68.9269L120.262 69.384L120.415 69.8412L120.64 70.2205C120.764 70.4291 120.986 70.7334 121.133 70.8967L121.4 71.1937L121.711 71.4036L122.022 71.6135L122.389 71.739L122.756 71.8645L123.18 71.8423L123.604 71.8201L123.855 71.6958L124.105 71.5715L124.314 71.3438C124.556 71.0812 124.755 70.7053 124.898 70.2381L124.998 69.9103L125.023 69.5122L125.048 69.1142L124.978 68.6865L124.909 68.2588L124.738 67.8202C124.395 66.9377 123.94 66.1887 123.501 65.781L123.249 65.5472L122.994 65.4246C122.703 65.2844 122.317 65.1786 121.949 65.138L121.695 65.11L121.452 65.2471ZM121.603 65.573L121.373 65.7081L121.128 65.9708L120.884 66.2335L120.75 66.5265L120.616 66.8196L120.564 67.1474L120.513 67.4752L120.542 67.7796C120.558 67.947 120.613 68.2419 120.664 68.4349L120.756 68.7858L121.018 69.2994L121.28 69.813L121.649 70.1944L122.018 70.5757L122.333 70.7313L122.648 70.8869L122.933 70.8885L123.217 70.8901L123.453 70.8084L123.688 70.7266L123.876 70.5638L124.063 70.401L124.147 70.179L124.232 69.9571V69.2313V68.5054L124.147 68.0634C124.041 67.5106 123.921 67.1812 123.691 66.8102L123.511 66.5198L123.143 66.1677L122.774 65.8155L122.442 65.6531C122.26 65.5638 122.048 65.4788 121.972 65.4643L121.834 65.4379L121.603 65.573ZM134.56 66.4627C134.307 66.5597 133.987 66.6977 133.85 66.7692L133.6 66.8993L133.357 67.1464C132.854 67.6565 132.33 68.6223 132.108 69.4481L131.984 69.9103L131.981 70.5288L131.978 71.1473L131.929 71.0907C131.902 71.0596 131.741 70.8644 131.572 70.657C131.047 70.0129 130.382 69.5216 129.646 69.2329C129.289 69.093 128.384 68.8822 128.317 68.9237C128.297 68.9364 128.044 69.0119 127.755 69.0916L127.229 69.2365L126.929 69.4018C126.764 69.4927 126.432 69.7173 126.191 69.9009L125.753 70.2347L125.129 70.8685L124.505 71.5024L124.069 72.0944C123.158 73.329 122.692 74.3476 122.548 75.4188L122.498 75.789L122.546 76.151L122.595 76.5129L122.735 76.8026L122.874 77.0922L123.108 77.306L123.342 77.5198L123.626 77.6565C123.988 77.8316 124.367 77.9293 124.834 77.9687L125.205 78L125.687 77.9439C126.274 77.8757 126.839 77.7558 127.69 77.5193C128.045 77.4206 128.461 77.3169 128.615 77.2888L128.894 77.2378L129.139 77.285C129.274 77.311 129.563 77.4091 129.782 77.503C130.001 77.597 130.346 77.7336 130.549 77.8065L130.918 77.9392L131.248 77.9402L131.578 77.9412L131.855 77.8535C132.891 77.5263 133.772 76.6986 133.894 75.9394L133.935 75.6844L133.891 75.3393L133.848 74.9941L133.681 74.536C133.59 74.284 133.361 73.7538 133.173 73.3576C132.985 72.9614 132.831 72.6336 132.831 72.629C132.831 72.6243 132.97 72.6891 133.14 72.773L133.449 72.9253L133.771 72.9805L134.094 73.0357L134.364 73.0108L134.635 72.9858L134.897 72.8569L135.16 72.728L135.462 72.4135C136.059 71.7926 136.614 70.8279 136.874 69.9571L137 69.5356V68.7396V67.9435L136.918 67.6419C136.68 66.7659 136.244 66.418 135.252 66.3112L135.022 66.2864L134.56 66.4627ZM134.676 66.791C134.116 67.0129 134.059 67.046 133.788 67.3032L133.564 67.5165L133.403 67.808C133.096 68.3658 132.834 69.2358 132.737 70.0201L132.689 70.4109L132.738 70.7633C132.839 71.5065 133.188 71.9197 133.808 72.0318L134.007 72.0677L134.25 72.0359L134.493 72.0041L134.757 71.8733L135.022 71.7425L135.277 71.482L135.533 71.2214L135.768 70.7532C136.036 70.2212 136.237 69.6666 136.41 68.9854L136.529 68.5163L136.513 68.1587L136.497 67.801L136.345 67.4879L136.194 67.1748L136.003 67.0091C135.78 66.8153 135.502 66.6749 135.275 66.6412L135.114 66.6173L134.676 66.791ZM128.243 69.3024C128.142 69.3375 127.884 69.4128 127.671 69.4698L127.283 69.5735L126.866 69.8566L126.449 70.1397L125.946 70.633C124.868 71.6906 123.918 73.1961 123.476 74.5462L123.338 74.9676L123.293 75.3423L123.249 75.7169L123.286 75.9779C123.306 76.1215 123.367 76.3272 123.421 76.4351L123.519 76.6313L123.71 76.7716L123.901 76.912L124.198 77.0051L124.495 77.0983L124.986 77.0975L125.477 77.0968L125.892 77.0068C126.12 76.9573 126.473 76.8661 126.675 76.8041C126.878 76.742 127.304 76.6126 127.621 76.5165L128.197 76.3417L128.635 76.316L129.073 76.2903L129.373 76.3684C129.538 76.4114 129.839 76.5219 130.042 76.614C130.244 76.7062 130.597 76.8552 130.825 76.9453L131.24 77.109L131.586 77.0879L131.932 77.067L132.14 76.9594C132.254 76.9003 132.465 76.7683 132.609 76.6662L132.871 76.4805L132.99 76.3055L133.11 76.1305L133.16 75.8405L133.21 75.5505L133.135 75.0951L133.059 74.6398L132.874 74.0779L132.688 73.516L132.322 72.7667L131.957 72.0175L131.645 71.5749L131.333 71.1324L130.872 70.6595C130.121 69.8898 128.893 69.1669 128.452 69.235C128.438 69.237 128.345 69.2674 128.243 69.3024Z" fill="#3A4D39"/>
</svg>
